<svg width="88" height="88" viewBox="0 0 88 88" fill="none" xmlns="http://www.w3.org/2000/svg">
<circle opacity="0.06" cx="44" cy="44" r="44" fill="#1363DF"/>
<path d="M43.685 43.82C42.875 43.82 42.05 43.67 41.405 43.385L32.555 39.455C30.305 38.45 29.975 37.1 29.975 36.365C29.975 35.63 30.305 34.28 32.555 33.275L41.405 29.345C42.71 28.76 44.675 28.76 45.98 29.345L54.845 33.275C57.08 34.265 57.425 35.63 57.425 36.365C57.425 37.1 57.095 38.45 54.845 39.455L45.98 43.385C45.32 43.685 44.51 43.82 43.685 43.82ZM43.685 31.16C43.175 31.16 42.68 31.235 42.32 31.4L33.47 35.33C32.555 35.75 32.225 36.17 32.225 36.365C32.225 36.56 32.555 36.995 33.455 37.4L42.305 41.33C43.025 41.645 44.33 41.645 45.05 41.33L53.915 37.4C54.83 36.995 55.16 36.56 55.16 36.365C55.16 36.17 54.83 35.735 53.915 35.33L45.065 31.4C44.705 31.25 44.195 31.16 43.685 31.16Z" fill="#1363DF"/>
<path d="M44 51.635C43.43 51.635 42.86 51.515 42.32 51.275L32.135 46.745C30.59 46.07 29.375 44.195 29.375 42.5C29.375 41.885 29.885 41.375 30.5 41.375C31.115 41.375 31.625 41.885 31.625 42.5C31.625 43.325 32.3 44.36 33.05 44.705L43.235 49.235C43.715 49.445 44.27 49.445 44.765 49.235L54.95 44.705C55.7 44.375 56.375 43.325 56.375 42.5C56.375 41.885 56.885 41.375 57.5 41.375C58.115 41.375 58.625 41.885 58.625 42.5C58.625 44.195 57.41 46.07 55.865 46.76L45.68 51.29C45.14 51.515 44.57 51.635 44 51.635Z" fill="#1363DF"/>
<path d="M44 59.135C43.43 59.135 42.86 59.015 42.32 58.775L32.135 54.245C30.455 53.495 29.375 51.83 29.375 49.985C29.375 49.37 29.885 48.86 30.5 48.86C31.115 48.86 31.625 49.385 31.625 50C31.625 50.945 32.18 51.815 33.05 52.205L43.235 56.735C43.715 56.945 44.27 56.945 44.765 56.735L54.95 52.205C55.82 51.815 56.375 50.96 56.375 50C56.375 49.385 56.885 48.875 57.5 48.875C58.115 48.875 58.625 49.385 58.625 50C58.625 51.845 57.545 53.51 55.865 54.26L45.68 58.79C45.14 59.015 44.57 59.135 44 59.135Z" fill="#1363DF"/>
</svg>
