<svg width="81" height="39" viewBox="0 0 81 39" fill="none" xmlns="http://www.w3.org/2000/svg">
<path d="M3.89636 12.2741H4.75136C5.39736 12.2741 5.9737 12.1727 6.48036 11.9701C6.98703 11.7674 7.41136 11.4887 7.75336 11.1341C8.10803 10.7794 8.37403 10.3614 8.55136 9.88005C8.74136 9.38605 8.83636 8.84772 8.83636 8.26505C8.83636 7.69505 8.74136 7.16305 8.55136 6.66905C8.36136 6.17505 8.08903 5.75072 7.73436 5.39605C7.39236 5.04138 6.96803 4.76272 6.46136 4.56005C5.9547 4.35738 5.3847 4.25605 4.75136 4.25605H3.89636V12.2741ZM0.172363 1.10205H5.68236C6.6577 1.10205 7.5697 1.29838 8.41836 1.69105C9.2797 2.08372 10.027 2.60938 10.6604 3.26805C11.3064 3.91405 11.813 4.67405 12.1804 5.54805C12.5477 6.40938 12.7314 7.31505 12.7314 8.26505C12.7314 9.20238 12.5477 10.1081 12.1804 10.9821C11.8257 11.8434 11.3254 12.6034 10.6794 13.2621C10.046 13.9207 9.2987 14.4464 8.43736 14.8391C7.5887 15.2317 6.67036 15.4281 5.68236 15.4281H0.172363V1.10205Z" fill="#DF4413"/>
<path d="M20.9744 9.13882C20.8604 8.65749 20.626 8.27116 20.2714 7.97982C19.9167 7.68849 19.486 7.54282 18.9794 7.54282C18.4474 7.54282 18.0104 7.68216 17.6684 7.96082C17.339 8.23949 17.13 8.63216 17.0414 9.13882H20.9744ZM16.9464 11.1338C16.9464 12.6158 17.643 13.3568 19.0364 13.3568C19.7837 13.3568 20.3474 13.0528 20.7274 12.4448H24.0524C23.381 14.6742 21.7027 15.7888 19.0174 15.7888C18.194 15.7888 17.4404 15.6685 16.7564 15.4278C16.0724 15.1745 15.4834 14.8198 14.9894 14.3638C14.508 13.9078 14.1344 13.3632 13.8684 12.7298C13.6024 12.0965 13.4694 11.3872 13.4694 10.6018C13.4694 9.79116 13.596 9.06282 13.8494 8.41682C14.1027 7.75816 14.4637 7.20082 14.9324 6.74482C15.401 6.28882 15.9647 5.94049 16.6234 5.69982C17.2947 5.44649 18.0484 5.31982 18.8844 5.31982C19.7077 5.31982 20.4487 5.44649 21.1074 5.69982C21.766 5.94049 22.3234 6.29516 22.7794 6.76382C23.2354 7.23249 23.5837 7.80882 23.8244 8.49282C24.065 9.16416 24.1854 9.92416 24.1854 10.7728V11.1338H16.9464Z" fill="white"/>
<path d="M31.6611 8.18882C31.0278 7.85949 30.4071 7.69482 29.7991 7.69482C29.4825 7.69482 29.2228 7.75816 29.0201 7.88482C28.8301 8.01149 28.7351 8.18249 28.7351 8.39782C28.7351 8.51182 28.7478 8.60682 28.7731 8.68282C28.8111 8.74616 28.8808 8.80949 28.9821 8.87282C29.0961 8.93616 29.2545 8.99316 29.4571 9.04382C29.6725 9.09449 29.9511 9.15782 30.2931 9.23382C31.2431 9.42382 31.9525 9.76582 32.4211 10.2598C32.8898 10.7412 33.1241 11.3618 33.1241 12.1218C33.1241 12.6918 33.0101 13.2048 32.7821 13.6608C32.5541 14.1168 32.2375 14.5032 31.8321 14.8198C31.4268 15.1238 30.9391 15.3582 30.3691 15.5228C29.7991 15.7002 29.1721 15.7888 28.4881 15.7888C27.1708 15.7888 25.8725 15.4152 24.5931 14.6678L25.8471 12.2358C26.8098 12.8945 27.7218 13.2238 28.5831 13.2238C28.8998 13.2238 29.1595 13.1542 29.3621 13.0148C29.5648 12.8755 29.6661 12.6982 29.6661 12.4828C29.6661 12.3562 29.6471 12.2548 29.6091 12.1788C29.5838 12.0902 29.5205 12.0142 29.4191 11.9508C29.3178 11.8748 29.1658 11.8115 28.9631 11.7608C28.7731 11.6975 28.5198 11.6342 28.2031 11.5708C27.1391 11.3555 26.3918 11.0388 25.9611 10.6208C25.5431 10.1902 25.3341 9.60116 25.3341 8.85382C25.3341 8.30916 25.4355 7.82149 25.6381 7.39082C25.8408 6.94749 26.1321 6.57382 26.5121 6.26982C26.8921 5.96582 27.3481 5.73149 27.8801 5.56682C28.4248 5.40216 29.0265 5.31982 29.6851 5.31982C30.7618 5.31982 31.8068 5.52882 32.8201 5.94682L31.6611 8.18882Z" fill="white"/>
<path d="M37.3571 5.68082V15.4278H33.9181V5.68082H37.3571Z" fill="white"/>
<path d="M41.9492 10.5068C41.9492 10.8235 42.0062 11.1212 42.1202 11.3998C42.2342 11.6658 42.3862 11.9002 42.5762 12.1028C42.7788 12.3055 43.0132 12.4638 43.2792 12.5778C43.5578 12.6918 43.8555 12.7488 44.1722 12.7488C44.4762 12.7488 44.7612 12.6918 45.0272 12.5778C45.3058 12.4638 45.5402 12.3055 45.7302 12.1028C45.9328 11.9002 46.0912 11.6658 46.2052 11.3998C46.3318 11.1212 46.3952 10.8298 46.3952 10.5258C46.3952 10.2092 46.3318 9.91782 46.2052 9.65182C46.0912 9.38582 45.9328 9.15149 45.7302 8.94882C45.5275 8.74616 45.2868 8.58782 45.0082 8.47382C44.7422 8.35982 44.4635 8.30282 44.1722 8.30282C43.8682 8.30282 43.5832 8.36616 43.3172 8.49282C43.0512 8.60682 42.8168 8.76516 42.6142 8.96782C42.4115 9.15782 42.2468 9.38582 42.1202 9.65182C42.0062 9.91782 41.9492 10.2028 41.9492 10.5068ZM49.6632 5.68082V14.7628C49.6632 15.3075 49.6315 15.7952 49.5682 16.2258C49.5048 16.6565 49.4162 17.0365 49.3022 17.3658C49.1502 17.7838 48.9095 18.1702 48.5802 18.5248C48.2635 18.8922 47.8772 19.2088 47.4212 19.4748C46.9652 19.7408 46.4458 19.9498 45.8632 20.1018C45.2932 20.2538 44.6725 20.3298 44.0012 20.3298C43.2412 20.3298 42.5445 20.2348 41.9112 20.0448C41.2778 19.8548 40.7205 19.5888 40.2392 19.2468C39.7705 18.9175 39.3842 18.5248 39.0802 18.0688C38.7762 17.6255 38.5735 17.1378 38.4722 16.6058H42.3482C42.5888 17.2518 43.1335 17.5748 43.9822 17.5748C44.7042 17.5748 45.2552 17.3722 45.6352 16.9668C46.0278 16.5615 46.2242 15.9978 46.2242 15.2758V14.3448C45.9708 14.5855 45.7238 14.7882 45.4832 14.9528C45.2552 15.1048 45.0208 15.2315 44.7802 15.3328C44.5395 15.4342 44.2862 15.5038 44.0202 15.5418C43.7542 15.5925 43.4628 15.6178 43.1462 15.6178C42.4495 15.6178 41.8098 15.4975 41.2272 15.2568C40.6445 15.0162 40.1378 14.6805 39.7072 14.2498C39.2892 13.8192 38.9598 13.3062 38.7192 12.7108C38.4912 12.1028 38.3772 11.4315 38.3772 10.6968C38.3772 9.94949 38.5038 9.25916 38.7572 8.62582C39.0105 7.97982 39.3525 7.42249 39.7832 6.95382C40.2265 6.47249 40.7458 6.09882 41.3412 5.83282C41.9492 5.55416 42.6078 5.41482 43.3172 5.41482C44.4698 5.41482 45.4388 5.84549 46.2242 6.70682V5.68082H49.6632Z" fill="white"/>
<path d="M51.0552 5.68082H54.4942V6.91582C54.9629 6.34582 55.4379 5.96582 55.9192 5.77582C56.4006 5.57316 56.9642 5.47182 57.6102 5.47182C58.2942 5.47182 58.8769 5.58582 59.3582 5.81382C59.8522 6.02916 60.2702 6.33949 60.6122 6.74482C60.8909 7.07416 61.0809 7.44149 61.1822 7.84682C61.2836 8.25216 61.3342 8.71449 61.3342 9.23382V15.4278H57.8952V10.5068C57.8952 10.0255 57.8572 9.63916 57.7812 9.34782C57.7179 9.04382 57.5976 8.80316 57.4202 8.62582C57.2682 8.47382 57.0972 8.36616 56.9072 8.30282C56.7172 8.23949 56.5146 8.20782 56.2992 8.20782C55.7166 8.20782 55.2669 8.38516 54.9502 8.73982C54.6462 9.08182 54.4942 9.57582 54.4942 10.2218V15.4278H51.0552V5.68082Z" fill="white"/>
<path d="M33.8422 1.197C33.7409 1.425 33.6902 1.672 33.6902 1.938C33.6902 2.204 33.7409 2.45733 33.8422 2.698C33.9435 2.926 34.0829 3.12867 34.2602 3.306C34.4375 3.48333 34.6402 3.62267 34.8682 3.724C35.1089 3.82533 35.3622 3.876 35.6282 3.876C35.8942 3.876 36.1412 3.82533 36.3692 3.724C36.6099 3.62267 36.8189 3.48333 36.9962 3.306C37.1735 3.12867 37.3129 2.926 37.4142 2.698C37.5155 2.45733 37.5662 2.204 37.5662 1.938C37.5662 1.672 37.5155 1.425 37.4142 1.197C37.3129 0.956334 37.1735 0.747334 36.9962 0.569999C36.8189 0.392666 36.6099 0.253333 36.3692 0.152C36.1412 0.0506668 35.8942 0 35.6282 0C35.3622 0 35.1089 0.0506668 34.8682 0.152C34.6402 0.253333 34.4375 0.392666 34.2602 0.569999C34.0829 0.747334 33.9435 0.956334 33.8422 1.197Z" fill="#DF4413"/>
<path d="M27.3406 17.9253H30.7796V25.1833C31.2482 24.6133 31.7232 24.2333 32.2046 24.0433C32.6859 23.8406 33.2496 23.7393 33.8956 23.7393C35.1242 23.7393 36.0489 24.0813 36.6696 24.7653C37.3029 25.4366 37.6196 26.3486 37.6196 27.5013V33.6953H34.1806V28.7743C34.1806 28.2803 34.1426 27.8813 34.0666 27.5773C33.9906 27.2733 33.8639 27.039 33.6866 26.8743C33.3826 26.6083 33.0152 26.4753 32.5846 26.4753C32.0019 26.4753 31.5522 26.6526 31.2356 27.0073C30.9316 27.3493 30.7796 27.8433 30.7796 28.4893V33.6953H27.3406V17.9253Z" fill="white"/>
<path d="M42.1998 28.7933C42.1998 29.11 42.2568 29.4076 42.3708 29.6863C42.4848 29.9523 42.6368 30.1866 42.8268 30.3893C43.0294 30.592 43.2638 30.7503 43.5298 30.8643C43.8084 30.9783 44.1061 31.0353 44.4228 31.0353C44.7268 31.0353 45.0118 30.9783 45.2778 30.8643C45.5564 30.7503 45.7908 30.592 45.9808 30.3893C46.1834 30.1866 46.3418 29.9523 46.4558 29.6863C46.5824 29.4203 46.6458 29.1353 46.6458 28.8313C46.6458 28.5273 46.5824 28.2423 46.4558 27.9763C46.3418 27.6976 46.1834 27.457 45.9808 27.2543C45.7908 27.0516 45.5564 26.8933 45.2778 26.7793C45.0118 26.6653 44.7268 26.6083 44.4228 26.6083C44.1061 26.6083 43.8084 26.6653 43.5298 26.7793C43.2638 26.8933 43.0294 27.0516 42.8268 27.2543C42.6368 27.457 42.4848 27.6913 42.3708 27.9573C42.2568 28.2106 42.1998 28.4893 42.1998 28.7933ZM46.5318 23.9483H49.9898V33.6953H46.5318V32.6123C45.7971 33.537 44.8028 33.9993 43.5488 33.9993C42.8394 33.9993 42.1871 33.8726 41.5918 33.6193C40.9964 33.3533 40.4771 32.986 40.0338 32.5173C39.5904 32.0486 39.2421 31.4976 38.9888 30.8643C38.7481 30.231 38.6278 29.5406 38.6278 28.7933C38.6278 28.0966 38.7481 27.438 38.9888 26.8173C39.2294 26.184 39.5651 25.633 39.9958 25.1643C40.4264 24.6956 40.9394 24.3283 41.5348 24.0623C42.1301 23.7836 42.7888 23.6443 43.5108 23.6443C44.7268 23.6443 45.7338 24.0686 46.5318 24.9173V23.9483Z" fill="white"/>
<path d="M51.38 23.9483H54.819V25.1453C55.7564 24.246 56.8077 23.7963 57.973 23.7963C59.417 23.7963 60.519 24.4043 61.279 25.6203C62.0517 24.3916 63.1537 23.7773 64.585 23.7773C65.041 23.7773 65.4717 23.847 65.877 23.9863C66.2824 24.113 66.6307 24.322 66.922 24.6133C67.2134 24.892 67.4414 25.2593 67.606 25.7153C67.7834 26.1713 67.872 26.7223 67.872 27.3683V33.6953H64.433V28.8883C64.433 28.3943 64.395 27.989 64.319 27.6723C64.2557 27.3556 64.1544 27.1086 64.015 26.9313C63.8884 26.754 63.7364 26.6336 63.559 26.5703C63.3817 26.507 63.1917 26.4753 62.989 26.4753C61.887 26.4753 61.336 27.2796 61.336 28.8883V33.6953H57.897V28.8883C57.897 28.3943 57.8654 27.989 57.802 27.6723C57.7387 27.343 57.6437 27.0833 57.517 26.8933C57.403 26.7033 57.251 26.5766 57.061 26.5133C56.871 26.4373 56.6494 26.3993 56.396 26.3993C56.1807 26.3993 55.978 26.431 55.788 26.4943C55.598 26.5576 55.427 26.6843 55.275 26.8743C55.1357 27.0516 55.0217 27.305 54.933 27.6343C54.857 27.951 54.819 28.369 54.819 28.8883V33.6953H51.38V23.9483Z" fill="white"/>
<path d="M77.3866 28.8503C77.3866 28.5463 77.3296 28.2613 77.2156 27.9953C77.1142 27.7166 76.9622 27.476 76.7596 27.2733C76.5569 27.0706 76.3162 26.9123 76.0376 26.7983C75.7716 26.6716 75.4802 26.6083 75.1636 26.6083C74.8596 26.6083 74.5746 26.6653 74.3086 26.7793C74.0426 26.8933 73.8082 27.0516 73.6056 27.2543C73.4156 27.457 73.2572 27.6976 73.1306 27.9763C73.0166 28.2423 72.9596 28.5273 72.9596 28.8313C72.9596 29.1353 73.0166 29.4203 73.1306 29.6863C73.2446 29.9523 73.4029 30.1866 73.6056 30.3893C73.8082 30.5793 74.0426 30.7376 74.3086 30.8643C74.5872 30.9783 74.8786 31.0353 75.1826 31.0353C75.4866 31.0353 75.7716 30.9783 76.0376 30.8643C76.3036 30.7503 76.5316 30.592 76.7216 30.3893C76.9242 30.1866 77.0826 29.9523 77.1966 29.6863C77.3232 29.4203 77.3866 29.1416 77.3866 28.8503ZM73.0546 38.5593H69.6156V23.9483H73.0546V25.0313C73.7892 24.1066 74.7899 23.6443 76.0566 23.6443C76.7532 23.6443 77.3992 23.7836 77.9946 24.0623C78.6026 24.3283 79.1282 24.6956 79.5716 25.1643C80.0149 25.633 80.3569 26.184 80.5976 26.8173C80.8509 27.4506 80.9776 28.1283 80.9776 28.8503C80.9776 29.5723 80.8509 30.2436 80.5976 30.8643C80.3569 31.485 80.0149 32.0296 79.5716 32.4983C79.1409 32.967 78.6279 33.3343 78.0326 33.6003C77.4372 33.8663 76.7912 33.9993 76.0946 33.9993C74.8786 33.9993 73.8652 33.5813 73.0546 32.7453V38.5593Z" fill="white"/>
<path d="M25.9806 24.1572C25.1192 23.1059 24.0552 22.5802 22.7886 22.5802C22.2312 22.5802 21.7119 22.6815 21.2306 22.8842C20.7619 23.0869 20.3566 23.3655 20.0146 23.7202C19.6726 24.0622 19.4002 24.4739 19.1976 24.9552C19.0076 25.4365 18.9126 25.9559 18.9126 26.5132C18.9126 27.0832 19.0076 27.6089 19.1976 28.0902C19.4002 28.5715 19.6726 28.9895 20.0146 29.3442C20.3692 29.6989 20.7809 29.9775 21.2496 30.1802C21.7182 30.3829 22.2249 30.4842 22.7696 30.4842C23.9602 30.4842 25.0306 29.9775 25.9806 28.9642V33.3722L25.6006 33.5052C25.0306 33.7079 24.4986 33.8535 24.0046 33.9422C23.5106 34.0435 23.0229 34.0942 22.5416 34.0942C21.5536 34.0942 20.6036 33.9106 19.6916 33.5432C18.7922 33.1632 17.9942 32.6375 17.2976 31.9662C16.6136 31.2822 16.0626 30.4779 15.6446 29.5532C15.2266 28.6159 15.0176 27.5962 15.0176 26.4942C15.0176 25.3922 15.2202 24.3852 15.6256 23.4732C16.0436 22.5485 16.5946 21.7569 17.2786 21.0982C17.9752 20.4269 18.7796 19.9075 19.6916 19.5402C20.6036 19.1602 21.5599 18.9702 22.5606 18.9702C23.1306 18.9702 23.6879 19.0335 24.2326 19.1602C24.7899 19.2742 25.3726 19.4579 25.9806 19.7112V24.1572Z" fill="#DF4413"/>
</svg>
