<svg width="88" height="88" viewBox="0 0 88 88" fill="none" xmlns="http://www.w3.org/2000/svg">
<circle opacity="0.06" cx="44" cy="44" r="44" fill="#1363DF"/>
<path d="M49 61.9167H39C31.65 61.9167 29.4167 59.6834 29.4167 52.3334V35.6667C29.4167 28.3167 31.65 26.0834 39 26.0834H49C56.35 26.0834 58.5834 28.3167 58.5834 35.6667V52.3334C58.5834 59.6834 56.35 61.9167 49 61.9167ZM39 28.5834C33.0334 28.5834 31.9167 29.7167 31.9167 35.6667V52.3334C31.9167 58.2834 33.0334 59.4167 39 59.4167H49C54.9667 59.4167 56.0834 58.2834 56.0834 52.3334V35.6667C56.0834 29.7167 54.9667 28.5834 49 28.5834H39Z" fill="#1363DF"/>
<path d="M47.3334 34.4166H40.6667C39.9834 34.4166 39.4167 33.85 39.4167 33.1666C39.4167 32.4833 39.9834 31.9166 40.6667 31.9166H47.3334C48.0167 31.9166 48.5834 32.4833 48.5834 33.1666C48.5834 33.85 48.0167 34.4166 47.3334 34.4166Z" fill="#1363DF"/>
<path d="M44 57.1C41.8834 57.1 40.1667 55.3833 40.1667 53.2667C40.1667 51.15 41.8834 49.4333 44 49.4333C46.1167 49.4333 47.8334 51.15 47.8334 53.2667C47.8334 55.3833 46.1167 57.1 44 57.1ZM44 51.9167C43.2667 51.9167 42.6667 52.5167 42.6667 53.25C42.6667 53.9833 43.2667 54.5834 44 54.5834C44.7334 54.5834 45.3334 53.9833 45.3334 53.25C45.3334 52.5167 44.7334 51.9167 44 51.9167Z" fill="#1363DF"/>
</svg>
