<svg width="56" height="56" viewBox="0 0 56 56" fill="none" xmlns="http://www.w3.org/2000/svg">
<circle cx="28" cy="28" r="27.75" fill="#1363DF" fill-opacity="0.06" stroke="#1363DF" stroke-width="0.5"/>
<path d="M28.1197 28.78C28.0497 28.77 27.9597 28.77 27.8797 28.78C26.1197 28.72 24.7197 27.28 24.7197 25.51C24.7197 23.7 26.1797 22.23 27.9997 22.23C29.8097 22.23 31.2797 23.7 31.2797 25.51C31.2697 27.28 29.8797 28.72 28.1197 28.78Z" stroke="#1363DF" stroke-width="1.5" stroke-linecap="round" stroke-linejoin="round"/>
<path d="M34.7398 35.3801C32.9598 37.0101 30.5998 38.0001 27.9998 38.0001C25.3998 38.0001 23.0398 37.0101 21.2598 35.3801C21.3598 34.4401 21.9598 33.5201 23.0298 32.8001C25.7698 30.9801 30.2498 30.9801 32.9698 32.8001C34.0398 33.5201 34.6398 34.4401 34.7398 35.3801Z" stroke="#1363DF" stroke-width="1.5" stroke-linecap="round" stroke-linejoin="round"/>
<path d="M28 38C33.5228 38 38 33.5228 38 28C38 22.4772 33.5228 18 28 18C22.4772 18 18 22.4772 18 28C18 33.5228 22.4772 38 28 38Z" stroke="#1363DF" stroke-width="1.5" stroke-linecap="round" stroke-linejoin="round"/>
</svg>
