<svg width="88" height="88" viewBox="0 0 88 88" fill="none" xmlns="http://www.w3.org/2000/svg">
<circle opacity="0.06" cx="44" cy="44" r="44" fill="#1363DF"/>
<path d="M40.5 53.975H33.8675C27.2175 53.975 25.1875 51.945 25.1875 45.295V34.795C25.1875 28.145 27.2175 26.115 33.8675 26.115H52.295C58.945 26.115 60.975 28.145 60.975 34.795C60.975 35.5125 60.38 36.1075 59.6625 36.1075C58.945 36.1075 58.35 35.5125 58.35 34.795C58.35 29.65 57.44 28.74 52.295 28.74H33.8675C28.7225 28.74 27.8125 29.65 27.8125 34.795V45.295C27.8125 50.44 28.7225 51.35 33.8675 51.35H40.5C41.2175 51.35 41.8125 51.945 41.8125 52.6625C41.8125 53.38 41.2175 53.975 40.5 53.975Z" fill="#1363DF"/>
<path d="M40.5 61.885C39.7825 61.885 39.1875 61.29 39.1875 60.5725V52.645C39.1875 51.9275 39.7825 51.3325 40.5 51.3325C41.2175 51.3325 41.8125 51.9275 41.8125 52.645V60.5725C41.8125 61.3075 41.2175 61.885 40.5 61.885Z" fill="#1363DF"/>
<path d="M40.5 46.975H26.5C25.7825 46.975 25.1875 46.38 25.1875 45.6625C25.1875 44.945 25.7825 44.35 26.5 44.35H40.5C41.2175 44.35 41.8125 44.945 41.8125 45.6625C41.8125 46.38 41.2175 46.975 40.5 46.975Z" fill="#1363DF"/>
<path d="M40.5 61.885H34.795C34.0775 61.885 33.4825 61.29 33.4825 60.5725C33.4825 59.855 34.0775 59.26 34.795 59.26H40.5C41.2175 59.26 41.8125 59.855 41.8125 60.5725C41.8125 61.29 41.2175 61.885 40.5 61.885Z" fill="#1363DF"/>
<path d="M56.32 61.885H50.1075C45.26 61.885 43.615 60.24 43.615 55.3925V45.4C43.615 40.5525 45.26 38.9075 50.1075 38.9075H56.32C61.1675 38.9075 62.8125 40.5525 62.8125 45.4V55.3925C62.8125 60.2575 61.1675 61.885 56.32 61.885ZM50.1075 41.5325C46.6775 41.5325 46.24 41.97 46.24 45.4V55.3925C46.24 58.8225 46.6775 59.26 50.1075 59.26H56.32C59.75 59.26 60.1875 58.8225 60.1875 55.3925V45.4C60.1875 41.97 59.75 41.5325 56.32 41.5325H50.1075Z" fill="#1363DF"/>
<path d="M53.275 56.1975C52.82 56.1975 52.365 56.0225 52.0325 55.69C51.875 55.5325 51.7525 55.34 51.665 55.13C51.5775 54.9025 51.525 54.675 51.525 54.4475C51.525 53.9925 51.7175 53.5375 52.0325 53.2225C52.435 52.82 53.0475 52.6275 53.625 52.7325C53.73 52.7675 53.835 52.8025 53.94 52.8375C54.045 52.89 54.15 52.9425 54.2375 52.995C54.3425 53.065 54.43 53.135 54.5175 53.2225C54.8325 53.5375 55.025 53.9925 55.025 54.4475C55.025 54.675 54.9725 54.9025 54.885 55.13C54.7975 55.34 54.675 55.5325 54.5175 55.69C54.43 55.7775 54.3425 55.8475 54.2375 55.9C54.15 55.97 54.045 56.0225 53.94 56.075C53.835 56.11 53.73 56.145 53.625 56.1625C53.5025 56.1975 53.3975 56.1975 53.275 56.1975Z" fill="#1363DF"/>
</svg>
