<svg width="88" height="88" viewBox="0 0 88 88" fill="none" xmlns="http://www.w3.org/2000/svg">
<circle opacity="0.06" cx="44" cy="44" r="44" fill="#1363DF"/>
<path d="M53.2666 53.8667H34.7333C28.1 53.8667 26.0833 51.85 26.0833 45.2167V34.65C26.0833 28.0167 28.1 26 34.7333 26H53.25C59.8833 26 61.9 28.0167 61.9 34.65V45.2C61.9166 51.85 59.9 53.8667 53.2666 53.8667ZM34.7333 28.5C29.5 28.5 28.5833 29.4167 28.5833 34.65V45.2C28.5833 50.4333 29.5 51.35 34.7333 51.35H53.25C58.4833 51.35 59.4 50.4333 59.4 45.2V34.65C59.4 29.4167 58.4833 28.5 53.25 28.5H34.7333Z" fill="#1363DF"/>
<path d="M44 61.4667C43.3167 61.4667 42.75 60.9 42.75 60.2167V52.75C42.75 52.0667 43.3167 51.5 44 51.5C44.6833 51.5 45.25 52.0667 45.25 52.75V60.2167C45.25 60.9 44.6833 61.4667 44 61.4667Z" fill="#1363DF"/>
<path d="M51.5 61.4667H36.5C35.8167 61.4667 35.25 60.9 35.25 60.2167C35.25 59.5333 35.8167 58.9667 36.5 58.9667H51.5C52.1833 58.9667 52.75 59.5333 52.75 60.2167C52.75 60.9 52.1833 61.4667 51.5 61.4667Z" fill="#1363DF"/>
<path d="M51 32.9166C51 33.4633 50.4586 33.9166 49.8057 33.9166L42.1943 33.9166C41.5414 33.9166 41 33.4633 41 32.9166C41 32.37 41.5414 31.9166 42.1943 31.9166L49.8057 31.9166C50.4586 31.9166 51 32.37 51 32.9166Z" fill="#1363DF"/>
<path d="M33 32.9166C33 33.4633 32.4586 33.9166 31.8057 33.9166L32.1943 33.9166C31.5414 33.9166 31 33.4633 31 32.9166C31 32.37 31.5414 31.9166 32.1943 31.9166L31.8057 31.9166C32.4586 31.9166 33 32.37 33 32.9166Z" fill="#1363DF"/>
<path d="M36 32.9166C36 33.4633 35.4586 33.9166 34.8057 33.9166L35.1943 33.9166C34.5414 33.9166 34 33.4633 34 32.9166C34 32.37 34.5414 31.9166 35.1943 31.9166L34.8057 31.9166C35.4586 31.9166 36 32.37 36 32.9166Z" fill="#1363DF"/>
<path d="M39 32.9166C39 33.4633 38.4586 33.9166 37.8057 33.9166L38.1943 33.9166C37.5414 33.9166 37 33.4633 37 32.9166C37 32.37 37.5414 31.9166 38.1943 31.9166L37.8057 31.9166C38.4586 31.9166 39 32.37 39 32.9166Z" fill="#1363DF"/>
<path d="M60.6666 46.8333H27.3333C26.65 46.8333 26.0833 46.2666 26.0833 45.5833C26.0833 44.8999 26.65 44.3333 27.3333 44.3333H60.6666C61.35 44.3333 61.9166 44.8999 61.9166 45.5833C61.9166 46.2666 61.35 46.8333 60.6666 46.8333Z" fill="#1363DF"/>
</svg>
