<svg width="88" height="88" viewBox="0 0 88 88" fill="none" xmlns="http://www.w3.org/2000/svg">
<circle opacity="0.06" cx="44" cy="44" r="44" fill="#1363DF"/>
<path d="M53.2667 53.95H34.7333C28.1 53.95 26.0833 51.9334 26.0833 45.3V34.7334C26.0833 28.1 28.1 26.0834 34.7333 26.0834H53.25C59.8833 26.0834 61.9 28.1 61.9 34.7334V45.2834C61.9167 51.9334 59.9 53.95 53.2667 53.95ZM34.7333 28.5834C29.5 28.5834 28.5833 29.5 28.5833 34.7334V45.2834C28.5833 50.5167 29.5 51.4334 34.7333 51.4334H53.25C58.4833 51.4334 59.4 50.5167 59.4 45.2834V34.7334C59.4 29.5 58.4833 28.5834 53.25 28.5834H34.7333Z" fill="#1363DF"/>
<path d="M44 61.9166C43.3167 61.9166 42.75 61.35 42.75 60.6666V52.7C42.75 52.0166 43.3167 51.45 44 51.45C44.6833 51.45 45.25 52.0166 45.25 52.7V60.6666C45.25 61.35 44.6833 61.9166 44 61.9166Z" fill="#1363DF"/>
<path d="M60.6667 46.9166H27.3333C26.65 46.9166 26.0833 46.35 26.0833 45.6666C26.0833 44.9833 26.65 44.4166 27.3333 44.4166H60.6667C61.35 44.4166 61.9167 44.9833 61.9167 45.6666C61.9167 46.35 61.35 46.9166 60.6667 46.9166Z" fill="#1363DF"/>
<path d="M51.5 61.9166H36.5C35.8167 61.9166 35.25 61.35 35.25 60.6666C35.25 59.9833 35.8167 59.4166 36.5 59.4166H51.5C52.1833 59.4166 52.75 59.9833 52.75 60.6666C52.75 61.35 52.1833 61.9166 51.5 61.9166Z" fill="#1363DF"/>
</svg>
